<?xml version="1.0" encoding="utf-8"?>
<!-- Generator: Adobe Illustrator 25.0.1, SVG Export Plug-In . SVG Version: 6.00 Build 0)  -->
<svg version="1.1" id="Layer_2_1_" xmlns="http://www.w3.org/2000/svg" xmlns:xlink="http://www.w3.org/1999/xlink" x="0px" y="0px"
	 viewBox="0 0 595.3 595.3" style="enable-background:new 0 0 595.3 595.3;" xml:space="preserve">
<style type="text/css">
	.st0{fill:none;stroke:#000000;stroke-width:13;stroke-miterlimit:10;}
</style>
<g>
	<path class="st0" d="M173.3,120.1c0,0-12.2,44.7-3.2,72.2c3.6,11.1,11.1,25,13.4,42.1c3.5,25.6,1,55.5,1.9,70
		c1.5,24.2,11.6,202.5,18.6,208c7.1,5.5,29,29.3,103.2,29.3s87.6-33,87.6-33l12.8-211.9c0,0,3.3-64.1,8.4-73s12.6-22.8,12.6-42.4
		s-6-59.1-6-59.1L173.3,120.1z"/>
	<path class="st0" d="M172.9,131.8c0,0-19-65.3,0-65.3h225.3c7.7,0,15.3-0.1,23-1c6.1-0.7,17.5,5,1,68.6"/>
	<path d="M173.6,119.9c0,0-12.2,44.7-3.2,72.2c3.6,11.1,11.1,25,13.4,42.1c3.5,25.6,1,55.5,1.9,70c1.5,24.2,11.6,202.5,18.6,208
		c7.1,5.5,29,29.3,103.2,29.3s87.6-33,87.6-33l12.8-211.9c0,0,3.3-64.1,8.4-73s12.6-22.8,12.6-42.4s-6-59.1-6-59.1L173.6,119.9z"/>
</g>
</svg>
