<?xml version="1.0" encoding="utf-8"?>
<!-- Generator: Adobe Illustrator 25.0.1, SVG Export Plug-In . SVG Version: 6.00 Build 0)  -->
<svg version="1.1" id="Layer_2" xmlns="http://www.w3.org/2000/svg" xmlns:xlink="http://www.w3.org/1999/xlink" x="0px" y="0px"
	 viewBox="0 0 595.3 595.3" style="enable-background:new 0 0 595.3 595.3;" xml:space="preserve">
<style type="text/css">
	.st0{fill:none;stroke:#000000;stroke-width:13;stroke-miterlimit:10;}
	.st1{fill:#FFFFFF;}
</style>
<path d="M309.9,216.8c0-25.6-20.6-46.3-46.1-46.6c-26.5-0.3-47.7,21.9-47.2,48.4c0.4,25.2,9.6,32.3,12.8,34.1
	c0.2,0.1,0.1,0.5-0.1,0.5l-34.4,0c-18.2,0-33.5,14.9-33.1,33.1c0.3,17.6,14.7,31.8,32.5,31.8h13c0,0,22.8-2.1,4.4,16.4l-25.2,29.6
	c-12.7,12.7-12.7,33.2,0,45.9c12.7,12.7,33.2,12.7,45.9,0l20.6-24.5c10.7-13.2,19.6-0.9,19.6-0.9l21,25.7
	c12.7,12.7,33.2,12.7,45.9,0c12.7-12.7,12.7-33.2,0-45.9l-28.2-33.9c0,0-10.5-10.9,4.2-10.9h15.7c18.2,0,33.5-14.9,33.1-33.1
	c-0.3-17.6-14.7-31.8-32.5-31.8l-32.4-0.4c-0.3,0-0.5-0.4-0.2-0.6C301.6,251.5,309.9,243.3,309.9,216.8z"/>
<circle class="st1" cx="247.7" cy="215.9" r="8.7"/>
<circle class="st1" cx="278.6" cy="215.9" r="8.7"/>
<circle class="st1" cx="263.1" cy="278.7" r="8.7"/>
<circle class="st1" cx="263.2" cy="311.4" r="8.7"/>
<circle class="st1" cx="263.2" cy="344.1" r="8.7"/>
</svg>
