<svg id="Layer_2" data-name="Layer 2" xmlns="http://www.w3.org/2000/svg" viewBox="0 0 595.28 595.28"><defs><style>.cls-1{fill:none;stroke:#1d1d1b;stroke-miterlimit:10;stroke-width:13px;}.cls-2{fill:#1d1d1b;}</style></defs><title>Artboard 2</title><path class="cls-1" d="M309.87,216.76a46.64,46.64,0,0,0-46.05-46.64c-26.5-.34-47.67,21.92-47.23,48.42.41,25.18,9.56,32.35,12.84,34.11a.28.28,0,0,1-.13.52H194.9c-18.21,0-33.46,14.9-33.11,33.11a32.47,32.47,0,0,0,32.47,31.84h13s22.84-2.08,4.37,16.4l-25.23,29.59A32.48,32.48,0,1,0,232.31,410l20.63-24.47c10.72-13.19,19.61-.88,19.61-.88l21.05,25.69a32.48,32.48,0,0,0,45.93-45.93L311.3,330.59s-10.54-10.88,4.21-10.88H331.2c18.21,0,33.46-14.9,33.12-33.11a32.48,32.48,0,0,0-32.47-31.84l-32.44-.44a.37.37,0,0,1-.25-.64C301.65,251.49,309.87,243.29,309.87,216.76Z"/><circle class="cls-2" cx="247.67" cy="215.95" r="8.65"/><circle class="cls-2" cx="278.61" cy="215.95" r="8.65"/><circle class="cls-2" cx="263.05" cy="278.68" r="8.65"/><circle class="cls-2" cx="263.22" cy="311.4" r="8.65"/><circle class="cls-2" cx="263.22" cy="344.13" r="8.65"/></svg>