<?xml version="1.0" encoding="utf-8"?>
<!-- Generator: Adobe Illustrator 25.0.1, SVG Export Plug-In . SVG Version: 6.00 Build 0)  -->
<svg version="1.1" id="Layer_1" xmlns="http://www.w3.org/2000/svg" xmlns:xlink="http://www.w3.org/1999/xlink" x="0px" y="0px"
	 viewBox="0 0 841.9 595.3" style="enable-background:new 0 0 841.9 595.3;" xml:space="preserve">
<style type="text/css">
	.st0{fill:#29235C;}
	.st1{fill:#C4E3DF;stroke:#000000;stroke-width:10;stroke-miterlimit:10;}
	.st2{fill:#FFED00;}
	.st3{fill:#F191A3;}
	.st4{fill:#CBBBA0;}
	.st5{fill:#CDADD3;}
	.st6{fill:#F7DB33;}
	.st7{fill:#3C3C3B;}
</style>
<rect x="0" class="st0" width="841.9" height="595.3"/>
<g id="GD1y94.tif">
	<g>
		<path class="st5" d="M735.5,78.9c-210.7,0-419.8,0-629.1,0c0,146.5,0,292,0,437.4c210.3,0,419.4,0,629.1,0
			C735.5,370.2,735.5,225.1,735.5,78.9z"/>
		<path d="M735.5,78.9c0,146.2,0,291.3,0,437.4c-209.7,0-418.8,0-629.1,0c0-145.4,0-290.9,0-437.4C315.7,78.9,524.8,78.9,735.5,78.9
			z M720,88.7c-200.3,0-397.3,0-597.2,0c102.9,87.1,203.5,172.2,304.9,258.1C524.9,261,621.5,175.7,720,88.7z M718.6,507
			c-74.3-71.5-146.4-140.8-218.9-210.5c-24.5,21.6-48,42.3-71.7,63.2c-27.7-23.3-55.1-46.3-83.2-69.9
			C269.4,361.8,194.4,433.3,117.1,507C318.8,507,516.9,507,718.6,507z M725.2,499.4c0-135.1,0-267.6,0-402
			C651.7,162.3,580,225.7,507.2,289.9C580.1,359.9,651.9,429,725.2,499.4z M337.3,283.3C263,220.4,190.5,159.1,116.5,96.4
			c0,133.7,0,264,0,397.4C191.1,422.7,263.7,353.5,337.3,283.3z"/>
		<path class="st5" d="M720,88.7c-98.5,87-195.1,172.3-292.3,258.1c-101.5-85.9-202.1-171-304.9-258.1
			C322.7,88.7,519.8,88.7,720,88.7z"/>
		<path class="st5" d="M718.6,507c-201.7,0-399.8,0-601.5,0c77.3-73.7,152.3-145.3,227.7-217.2c28.1,23.6,55.4,46.6,83.2,69.9
			c23.7-20.9,47.2-41.6,71.7-63.2C572.2,366.3,644.3,435.6,718.6,507z"/>
		<path class="st5" d="M725.2,499.4C651.9,429,580.1,359.9,507.2,289.9C580,225.7,651.7,162.3,725.2,97.4
			C725.2,231.8,725.2,364.3,725.2,499.4z"/>
		<path class="st5" d="M337.3,283.3c-73.7,70.2-146.2,139.3-220.9,210.5c0-133.4,0-263.7,0-397.4C190.5,159.1,263,220.4,337.3,283.3
			z"/>
	</g>
</g>
<g id="GQlbvF.tif">
	<g>
		<path d="M355.2,243.2c0.5-9.6,0.3-19,1.6-28.1c4.8-32.4,33.1-55.8,66.3-55.5c32.1,0.4,59.7,24.5,64,56.4c1.2,8.8,1,17.8,1.5,27.2
			c2.1,0.3,4.5,0.5,6.9,1.1c11.2,2.9,18.8,12.4,18.9,24.4c0.2,29.5,0.2,59.1-0.1,88.6c-0.1,14.9-10.8,25.1-25.7,25.1
			c-44.6,0.1-89.2,0.1-133.8,0c-14.4,0-25-10.2-25.3-25.1c-0.4-19.6-0.1-39.2-0.1-58.7c0-9.3-0.1-18.6,0-27.9
			c0.2-16.2,8.2-25,24.3-27.2C354.1,243.6,354.6,243.4,355.2,243.2z M479.3,252c0-11.2,1-21.7-0.2-32c-2.7-23.9-15.5-40.9-38.3-48.6
			c-23.2-7.9-44.2-2.6-61.3,15.4c-12.3,12.9-16,29-15.5,46.3c0.2,6.2,0,12.4,0,18.9c-3.2,0-5.5,0-7.8,0
			c-11.7,0.1-18.4,6.9-18.4,18.6c0,28.5,0,57.1,0,85.6c0,10.8,6.8,17.8,17.5,18c6.8,0.1,13.6,0,20.4,0.1c37.5,0,74.9,0,112.4,0
			c10.2,0,17.7-7,17.7-16.8c0.1-29.5,0.1-59.1,0-88.6c0-9.8-7.2-16.7-17.1-16.9C486.1,252,483.3,252,479.3,252z"/>
		<path class="st6" d="M479.3,252c4,0,6.8,0,9.6,0c9.9,0.2,17.1,7.1,17.1,16.9c0.1,29.5,0.1,59.1,0,88.6c0,9.8-7.5,16.8-17.7,16.8
			c-37.5,0-74.9,0-112.4,0c-6.8,0-13.6,0.1-20.4-0.1c-10.8-0.2-17.5-7.2-17.5-18c0-28.5,0-57.1,0-85.6c0-11.7,6.7-18.5,18.4-18.6
			c2.3,0,4.6,0,7.8,0c0-6.5,0.1-12.7,0-18.9c-0.5-17.4,3.2-33.4,15.5-46.3c17.1-18,38.1-23.2,61.3-15.4
			c22.8,7.7,35.7,24.7,38.3,48.6C480.2,230.3,479.3,240.8,479.3,252z M381.2,252.7c27,0,52.5,0,77.9-0.2c0.9,0,2.6-2.3,2.6-3.5
			c0.1-8.3,0.2-16.6-0.5-24.8c-1.4-18.8-17.4-35.4-35.1-37c-19.7-1.8-38.2,10.9-42.3,30.7C381.6,228.9,382,240.5,381.2,252.7z
			 M408.7,326.6C408.7,326.6,408.7,326.6,408.7,326.6c0,2.5,0,5,0,7.5c0.1,8.9,5.1,14.5,12.7,14.7c8.1,0.2,13.3-5.3,13.6-14.4
			c0.1-5-0.3-10,0.1-14.9c0.2-2.5,1.2-5.5,2.8-7.3c7.9-8.9,7.7-22.2-0.7-30.5c-8.3-8.1-21.6-8.3-30.2-0.5c-8.8,8-9.8,21.5-1.7,30.3
			c2.6,2.9,3.7,5.6,3.3,9.3C408.6,322.6,408.7,324.6,408.7,326.6z"/>
		<path d="M381.2,252.7c0.8-12.2,0.4-23.8,2.6-34.9c4.1-19.7,22.6-32.4,42.3-30.7c17.8,1.6,33.7,18.2,35.1,37
			c0.6,8.2,0.5,16.6,0.5,24.8c0,1.2-1.7,3.5-2.6,3.5C433.7,252.8,408.2,252.7,381.2,252.7z M453.8,243.9c-0.6-8.2-0.3-15.9-1.8-23.3
			c-2.6-13.7-14.6-23.9-28-25.2c-12-1.1-24.4,6.6-30.2,18.7c-4.6,9.6-3.3,19.6-3.2,29.8C411.7,243.9,432.2,243.9,453.8,243.9z"/>
		<path d="M408.7,326.6c0-2-0.1-4,0-6c0.3-3.7-0.7-6.4-3.3-9.3c-8.1-8.8-7.1-22.3,1.7-30.3c8.6-7.8,21.9-7.6,30.2,0.5
			c8.5,8.3,8.6,21.6,0.7,30.5c-1.6,1.9-2.6,4.8-2.8,7.3c-0.4,4.9,0,9.9-0.1,14.9c-0.3,9.1-5.5,14.5-13.6,14.4
			c-7.7-0.2-12.6-5.8-12.7-14.7C408.7,331.6,408.8,329.1,408.7,326.6C408.7,326.6,408.7,326.6,408.7,326.6z M417.4,323.4
			C417.4,323.4,417.4,323.4,417.4,323.4c0,3.8,0,7.6,0,11.4c0,3.1,1.2,5.4,4.4,5.5c3.5,0.1,4.8-2.3,4.7-5.7
			c-0.1-6.3,0.1-12.6-0.1-18.9c-0.1-3.5,0.4-6,3.8-8.2c6.4-4.4,6.9-13.5,1.8-19.3c-5.1-5.7-14-5.9-19.5-0.6
			c-5.3,5.2-5.8,14.7,0.3,18.9c4.5,3.2,4.9,6.8,4.7,11.3C417.3,319.8,417.4,321.6,417.4,323.4z"/>
		<path class="st7" d="M417.4,323.4c0-1.8-0.1-3.7,0-5.5c0.2-4.5-0.2-8.1-4.7-11.3c-6-4.3-5.6-13.8-0.3-18.9
			c5.5-5.4,14.5-5.1,19.5,0.6c5.1,5.7,4.6,14.9-1.8,19.3c-3.4,2.3-3.9,4.8-3.8,8.2c0.1,6.3,0,12.6,0.1,18.9c0,3.3-1.2,5.7-4.7,5.7
			c-3.2-0.1-4.4-2.4-4.4-5.5C417.4,331.1,417.4,327.2,417.4,323.4C417.4,323.4,417.4,323.4,417.4,323.4z"/>
	</g>
</g>
</svg>
