<?xml version="1.0" encoding="utf-8"?>
<!-- Generator: Adobe Illustrator 25.0.1, SVG Export Plug-In . SVG Version: 6.00 Build 0)  -->
<svg version="1.1" id="Layer_1" xmlns="http://www.w3.org/2000/svg" xmlns:xlink="http://www.w3.org/1999/xlink" x="0px" y="0px"
	 viewBox="0 0 300 159" style="enable-background:new 0 0 300 159;" xml:space="preserve">
<style type="text/css">
	.st0{fill:#6FCAF3;}
	.st1{fill:none;}
	.st2{font-family:'HelveticaNeue';}
	.st3{font-size:24px;}
	.st4{fill:#020203;}
	.st5{fill:#020203;stroke:#000000;stroke-width:2;stroke-miterlimit:10;}
	.st6{fill:none;stroke:#000000;stroke-width:2;stroke-miterlimit:10;}
	.st7{fill:none;stroke:#020203;stroke-width:2;stroke-miterlimit:10;}
	.st8{fill-rule:evenodd;clip-rule:evenodd;fill:#020203;}
</style>
<rect class="st0" width="300" height="159"/>
<rect y="48.1" class="st1" width="300" height="20.4"/>
<text transform="matrix(1 0 0 1 79.7651 65.2789)" class="st2 st3">The Date Pot</text>
<g>
	<path class="st4" d="M272.4,86.1c0-3-2.4-5.4-5.4-5.5c-3.1,0-5.6,2.6-5.5,5.7c0,3,1.1,3.8,1.5,4c0,0,0,0.1,0,0.1h-4
		c-2.1,0-3.9,1.8-3.9,3.9c0,2.1,1.7,3.7,3.8,3.7h1.5c0,0,2.7-0.2,0.5,1.9l-3,3.5c-1.5,1.5-1.5,3.9,0,5.4s3.9,1.5,5.4,0l2.4-2.9
		c1.3-1.6,2.3-0.1,2.3-0.1l2.5,3c1.5,1.5,3.9,1.5,5.4,0s1.5-3.9,0-5.4l-3.3-4c0,0-1.2-1.3,0.5-1.3h1.8c2.1,0,3.9-1.8,3.9-3.9
		c0-2.1-1.7-3.7-3.8-3.7l-3.8,0c0,0-0.1,0,0-0.1C271.5,90.2,272.4,89.2,272.4,86.1z"/>
	<circle class="st0" cx="265.1" cy="86" r="1"/>
	<circle class="st0" cx="268.8" cy="86" r="1"/>
	<circle class="st0" cx="266.9" cy="93.4" r="1"/>
	<circle class="st0" cx="267" cy="97.2" r="1"/>
	<circle class="st0" cx="267" cy="101.1" r="1"/>
</g>
<g>
	<path class="st5" d="M201.8,103.5v-8.4c0,0-0.5-1.7,1.7-1.7s16.3,0,16.3,0v10.1c0,0,0.3,4.7-4.8,4.7c-5.1,0-8.2,0-8.2,0
		S201.8,108.9,201.8,103.5z"/>
	<line class="st6" x1="198" y1="110.9" x2="228.2" y2="110.9"/>
	<path class="st6" d="M205.1,83c0,0-0.1,2.1,1.4,3.6s1.8,4,1.8,4.4"/>
	<path class="st6" d="M209.9,83c0,0-0.1,2.1,1.4,3.6c1.5,1.5,1.8,4,1.8,4.4"/>
	<path class="st6" d="M221.8,102.5c2.5,0,4.4-1.9,4.4-4.2s-2-4.2-4.4-4.2h-2l0.2,8.4L221.8,102.5L221.8,102.5z"/>
</g>
<g>
	<path class="st7" d="M25.8,86.8c0,0-0.7,2.6-0.2,4.1c0.2,0.6,0.6,1.4,0.8,2.4c0.2,1.5,0.1,3.2,0.1,4c0.1,1.4,0.7,11.6,1.1,11.9
		c0.4,0.3,1.7,1.7,5.9,1.7s5-1.9,5-1.9l0.7-12.1c0,0,0.2-3.7,0.5-4.2c0.3-0.5,0.7-1.3,0.7-2.4c0-1.1-0.3-3.4-0.3-3.4L25.8,86.8z"/>
	<path class="st7" d="M25.8,87.5c0,0-1.1-3.7,0-3.7l12.9,0c0.4,0,0.9,0,1.3-0.1c0.3,0,1,0.3,0.1,3.9"/>
	<path class="st4" d="M25.8,86.8c0,0-0.7,2.6-0.2,4.1c0.2,0.6,0.6,1.4,0.8,2.4c0.2,1.5,0.1,3.2,0.1,4c0.1,1.4,0.7,11.6,1.1,11.9
		c0.4,0.3,1.7,1.7,5.9,1.7c4.2,0,5-1.9,5-1.9l0.7-12.1c0,0,0.2-3.7,0.5-4.2c0.3-0.5,0.7-1.3,0.7-2.4c0-1.1-0.3-3.4-0.3-3.4
		L25.8,86.8z"/>
</g>
<path class="st8" d="M150,86.1c8.3-8.5,29.1,6.4,0,25.6C120.9,92.6,141.7,77.6,150,86.1z"/>
<path class="st4" d="M87.9,91.3c-3.2,0-5.8,2.6-5.8,5.8s2.6,5.8,5.8,5.8s5.8-2.6,5.8-5.8S91.1,91.3,87.9,91.3z M87.9,98.4
	c-0.7,0-1.3-0.6-1.3-1.3c0-0.7,0.6-1.3,1.3-1.3c0.7,0,1.3,0.6,1.3,1.3C89.2,97.8,88.6,98.4,87.9,98.4z M87.9,83.4
	c-7.6,0-13.8,6.2-13.8,13.8s6.2,13.8,13.8,13.8s13.8-6.2,13.8-13.8S95.5,83.4,87.9,83.4z M87.9,104.2c-3.9,0-7.1-3.2-7.1-7.1
	c0-3.9,3.2-7.1,7.1-7.1c3.9,0,7.1,3.2,7.1,7.1C95,101,91.8,104.2,87.9,104.2z"/>
</svg>
