<?xml version="1.0" encoding="utf-8"?>
<!-- Generator: Adobe Illustrator 25.0.1, SVG Export Plug-In . SVG Version: 6.00 Build 0)  -->
<svg version="1.1" id="Layer_1" xmlns="http://www.w3.org/2000/svg" xmlns:xlink="http://www.w3.org/1999/xlink" x="0px" y="0px"
	 viewBox="0 0 841.9 595.3" style="enable-background:new 0 0 841.9 595.3;" xml:space="preserve">
<style type="text/css">
	.st0{fill:#29235C;}
	.st1{fill:#C4E3DF;stroke:#000000;stroke-width:10;stroke-miterlimit:10;}
	.st2{fill:#FFED00;}
	.st3{fill:#F191A3;}
	.st4{fill:#CBBBA0;}
	.st5{fill:#CDADD3;}
	.st6{fill:#F7DB33;}
	.st7{fill:#3C3C3B;}
</style>
<rect class="st0" width="841.9" height="595.3"/>
<rect x="244.6" y="45" class="st1" width="383" height="513"/>
<g>
	<path d="M428,336.4l-0.6-7.8c-1.8-16.1,3.6-33.7,18.5-51.5c13.4-15.8,20.9-27.4,20.9-40.8c0-15.2-9.5-25.3-28.3-25.6
		c-10.7,0-22.6,3.6-30.1,9.2l-7.1-18.8c9.8-7.1,26.8-11.9,42.6-11.9c34.3,0,49.8,21.2,49.8,43.8c0,20.3-11.3,34.9-25.6,51.8
		c-13.1,15.5-17.9,28.6-17,43.8l0.3,7.8H428z M421.5,378.1c0-11,7.4-18.8,17.9-18.8c10.4,0,17.6,7.7,17.6,18.8
		c0,10.4-6.9,18.5-17.9,18.5C428.6,396.6,421.5,388.6,421.5,378.1z"/>
</g>
<g id="pCKz9o.tif">
	<g>
		<path d="M750,60.1c-4.1,4.7-6.9,9.7-11.2,12.6C683.1,111.2,627,149.3,571,187.5c-1.7,1.2-3.9,2.2-6,2.5
			c-16.6,2.4-33.2,4.9-49.8,6.9c-9.1,1.1-12.5-4-8.2-12c7.9-14.8,16.1-29.4,24.5-43.9c1.3-2.2,3.6-4.1,5.8-5.6
			c55-37.6,110-75.2,165.1-112.8c12.3-8.4,23.4-6.3,32,5.8c3.7,5.2,7.7,10.2,10.5,15.8C747.4,48.8,748.2,54.2,750,60.1z M691.8,39.8
			C640.6,74.8,590,109.4,539.9,143.6c8.4,12.4,17.2,25.3,25.7,38c50.3-34.7,101-69.6,151.4-104.3C708.9,65.2,700.1,52.2,691.8,39.8z
			 M698,33c9.8,14.4,18.6,27.3,28.7,42.2c2.3-2.1,4.9-5,7.9-7.4c8.3-6.3,9.7-12.5,4.1-21.2c-3.7-5.8-7.5-11.5-11.7-16.9
			c-4.7-6-11-6.9-17.6-3.4C705.2,28.4,701.3,31,698,33z M533.6,150.9c-7.2,13.1-14.2,25.7-21.9,39.7c16.4-2.3,30.7-4.3,44.5-6.3
			C548.5,172.9,541.3,162.3,533.6,150.9z"/>
		<path class="st2" d="M691.8,39.8c8.4,12.4,17.1,25.3,25.3,37.4c-50.4,34.7-101,69.6-151.4,104.3c-8.5-12.6-17.3-25.5-25.7-38
			C590,109.4,640.6,74.8,691.8,39.8z M688.4,59.8c-0.7-1.3-1.3-3-1.7-3c-2.2,0.3-4.8,0.5-6.6,1.7c-38,25.8-76,51.7-113.8,77.8
			c-1.9,1.3-2.7,4.5-3.9,6.8c2.5-0.4,5.4,0.1,7.3-1.2c38.3-25.9,76.5-52,114.6-78.1C685.8,62.8,686.9,61.2,688.4,59.8z"/>
		<path class="st3" d="M698,33c3.3-2,7.2-4.5,11.3-6.7c6.7-3.5,12.9-2.6,17.6,3.4c4.2,5.4,8,11.1,11.7,16.9
			c5.6,8.7,4.2,14.9-4.1,21.2c-3,2.3-5.6,5.2-7.9,7.4C716.6,60.3,707.8,47.4,698,33z"/>
		<path class="st4" d="M533.6,150.9c7.7,11.5,14.9,22,22.6,33.4c-13.8,1.9-28.1,4-44.5,6.3C519.4,176.6,526.4,163.9,533.6,150.9z"/>
		<path d="M688.4,59.8c-1.5,1.4-2.7,3-4.1,4c-38.2,26.1-76.3,52.2-114.6,78.1c-1.8,1.2-4.8,0.8-7.3,1.2c1.3-2.3,2-5.4,3.9-6.8
			c37.8-26.1,75.8-52,113.8-77.8c1.8-1.2,4.3-1.4,6.6-1.7C687.1,56.8,687.7,58.5,688.4,59.8z"/>
	</g>
</g>
</svg>
