<?xml version="1.0" encoding="utf-8"?>
<!-- Generator: Adobe Illustrator 25.0.1, SVG Export Plug-In . SVG Version: 6.00 Build 0)  -->
<svg version="1.1" id="Layer_1" xmlns="http://www.w3.org/2000/svg" xmlns:xlink="http://www.w3.org/1999/xlink" x="0px" y="0px"
	 viewBox="0 0 101.2 101.2" style="enable-background:new 0 0 101.2 101.2;" xml:space="preserve">
<style type="text/css">
	.st0{fill:#E94D52;}
	.st1{fill:#AE313B;}
</style>
<rect class="st0" width="101.2" height="101.2"/>
<g id="IIdzyz.tif">
	<g>
		<path class="st1" d="M27,3.9c15.8,0,31.5,0,47.3,0C74.9,4,75.5,4,76.1,4.1c2,0.2,3.9,0.7,5.7,1.4c3.8,1.5,6.9,3.8,9.5,6.9
			c3.3,4.1,5.1,8.9,5.1,14.2c0,16,0,31.9,0,47.9c0,1.4-0.1,2.8-0.4,4.2c-0.5,2.8-1.5,5.4-3,7.8c-2.4,3.9-5.7,6.8-9.9,8.8
			c-3.1,1.4-6.3,2.1-9.7,2.1c-15.2,0-30.3,0-45.5,0c-2.5,0-4.9-0.3-7.2-1.1c-3.2-1.1-6-2.7-8.5-5c-1.9-1.8-3.5-3.8-4.7-6.2
			c-1.4-2.7-2.2-5.6-2.5-8.6c0-0.5-0.1-0.9-0.1-1.4c0-16.2,0-32.5,0-48.7c0-0.5,0.1-0.9,0.1-1.4c0.2-2.1,0.6-4.2,1.4-6.1
			c1.6-4.2,4.2-7.7,7.9-10.4c3.1-2.3,6.6-3.7,10.4-4.2C25.4,4,26.2,4,27,3.9z M89.3,50.6c0-6.5,0-13.1,0-19.6c0-0.9-0.1-1.9-0.1-2.8
			c-0.2-1.8-0.6-3.5-1.3-5.1c-1.6-3.8-4.2-6.8-7.7-9c-3-1.8-6.2-2.9-9.7-2.9c-13.1,0-26.1,0-39.2,0c-1,0-2.1,0.1-3.1,0.2
			c-4.8,0.8-8.8,3.1-11.8,6.9c-2.9,3.6-4.4,7.7-4.4,12.4c0,13.3,0,26.5,0,39.8c0,1.1,0.1,2.2,0.2,3.3c0.5,3.1,1.6,5.9,3.5,8.3
			c3,4.1,7,6.6,12,7.6c1.3,0.3,2.6,0.3,3.9,0.3c12.7,0,25.5,0,38.2,0c1.9,0,3.8-0.2,5.7-0.8c8.1-2.4,13.9-9.9,13.9-18.6
			C89.2,64,89.3,57.3,89.3,50.6z"/>
		<path class="st1" d="M50.6,27.2c12.7,0,22.8,10,23.4,22.3c0.7,13.4-9.9,24.3-22.8,24.6c-13.1,0.3-23.7-10-24-22.8
			C26.8,38,37.4,27.2,50.6,27.2z M67.8,51.7c0-4.7-0.9-8.1-3-11.1c-4.1-5.8-9.7-8.4-16.8-7.4c-4.1,0.5-7.5,2.5-10.2,5.6
			c-3.5,4-4.9,8.7-4.3,13.9c0.2,2.4,1,4.6,2.2,6.7c3.4,6.1,10,9.5,16.9,8.7c3.4-0.4,6.4-1.7,9-3.9C65.7,60.7,67.7,56.1,67.8,51.7z"
			/>
		<path class="st1" d="M67.8,26.2c0-4.1,3.4-7.2,7.3-7c3.7,0.1,6.8,3.2,6.8,7.2c-0.1,4-3.4,7-7.1,6.9C71.2,33.2,67.9,30.3,67.8,26.2
			z"/>
	</g>
</g>
</svg>
