<?xml version="1.0" encoding="utf-8"?>
<!-- Generator: Adobe Illustrator 25.0.1, SVG Export Plug-In . SVG Version: 6.00 Build 0)  -->
<svg version="1.1" id="Layer_1" xmlns="http://www.w3.org/2000/svg" xmlns:xlink="http://www.w3.org/1999/xlink" x="0px" y="0px"
	 viewBox="0 0 101.2 101.2" style="enable-background:new 0 0 101.2 101.2;" xml:space="preserve">
<style type="text/css">
	.st0{fill:#E94D52;}
	.st1{fill:#AE313B;}
</style>
<rect class="st0" width="101.2" height="101.2"/>
<g id="uM6UDl.tif">
	<g>
		<path class="st1" d="M59.5,72.3c3-0.8,5.9-1.4,8.6-2.4c7.2-2.7,10.8-8.2,11.8-15.6c0.9-6,0.3-11.7-3.7-16.7
			c-0.4-0.5-0.2-1.5-0.2-2.2c-0.2-3.1-0.2-6.2-0.5-9.2c-0.1-1.5-1.2-2.1-2.6-1.6c-3.1,1.2-6.1,2.5-9.1,3.7c-1,0.4-2.2,0.7-3.3,0.5
			c-6.5-1.3-12.9-1.3-19.4-0.1c-1.3,0.3-2.9-0.3-4.3-0.7c-2.8-1-5.6-2.2-8.4-3.3c-1.7-0.7-2.8,0.2-2.9,1.8c-0.2,2.9-0.2,5.8-0.4,8.7
			c0,0.9,0,2-0.5,2.7c-9.7,14.5-1.7,31.9,15.6,33.8c0.4,0,0.7,0.1,1.1,0.1c-0.8,1.9-1.4,3.7-2.3,5.5c-0.4,0.7-1.3,1.3-2,1.5
			c-4.7,1.4-8.2-0.1-11.3-4.1c-1.4-1.8-3.3-3.4-5.3-4.6c-1-0.6-2.6-0.3-4-0.4c-0.1,0.3-0.2,0.6-0.4,1c1.8,1.7,3.8,3.3,5.4,5.2
			c1.6,2,2.5,4.5,4.2,6.4c2.6,2.7,6.2,3,9.7,2.7c1.1-0.1,2.2-0.1,3.5-0.2c0,2.6,0,5,0,7.5c-0.1,2.8-1.2,3.6-3.9,2.7
			c-6.8-2.3-12.8-6-17.7-11.2C4.7,70.1,0.8,54.1,7,36.5C13.2,18.9,26.3,8.6,44.8,6.2c24.7-3.2,46.3,12.6,51.4,37
			c4.5,21.6-8.8,44.7-29.7,51.8c-3.1,1.1-4.3,0.3-4.3-3c0-2.8,0-5.7,0-8.5C62.4,79.4,62.3,75.5,59.5,72.3z"/>
	</g>
</g>
</svg>
